<?xml version="1.0" encoding="utf-8"?>
<!-- Generator: Adobe Illustrator 26.1.0, SVG Export Plug-In . SVG Version: 6.00 Build 0)  -->
<svg version="1.1" id="Layer_1" xmlns="http://www.w3.org/2000/svg" xmlns:xlink="http://www.w3.org/1999/xlink" x="0px" y="0px"
	 viewBox="0 0 538.58 595.28" style="enable-background:new 0 0 538.58 595.28;" xml:space="preserve">
<style type="text/css">
	.st0{fill-rule:evenodd;clip-rule:evenodd;fill:#231F20;}
	.st1{fill-rule:evenodd;clip-rule:evenodd;fill:#F13E2D;}
	.st2{fill-rule:evenodd;clip-rule:evenodd;fill:#FEFEFE;}
	.st3{fill-rule:evenodd;clip-rule:evenodd;fill:#A09D9D;}
	.st4{fill-rule:evenodd;clip-rule:evenodd;fill:#58585A;}
	.st5{fill-rule:evenodd;clip-rule:evenodd;fill:#363638;}
</style>
<g id="WS3Sdq_1_">
	<g>
		<path class="st0" d="M508.97,298.34c1.41,120.38-96.83,237.61-237.69,238.95C138.62,538.55,29.54,432.28,29.59,298.22
			C29.64,159.86,140.76,59.67,265.91,58C399.05,56.23,509.24,163.6,508.97,298.34z"/>
		<path class="st1" d="M124.43,115.16c8.07-7.01,16.98-12.81,26.13-18.25c27.41-16.28,56.93-26.81,88.57-30.5
			c69.86-8.16,131.88,10.45,184.84,56.92c40.17,35.24,64.74,79.75,74.79,132.23c1.84,9.62,2.81,19.36,3.45,29.12
			c0.22,3.3,0.1,3.36-2.95,2.12c-16.64-6.75-32.9-14.42-49.67-20.85c-13.42-5.14-27.13-9.32-41.24-12.11
			c-2.51-0.5-3.55-1.57-4.19-4.04c-8.62-33.67-39.07-58.88-73.57-61.07c-35.6-2.26-66.59,16.07-81.66,48.42
			c-1.04,2.23-2.25,2.95-4.69,3.02c-41.13,1.25-81.42,7.81-120.95,19.22c-27.96,8.07-55.27,18.03-82.35,28.63
			c-1.4,0.55-2.83,1.05-4.5,1.67c-0.41-2.93,0.03-5.6,0.23-8.28c3.85-52.51,23.28-98.48,57.85-138.12c1.81-2.07,3.75-4.02,5.64-6.03
			c0.84,1.43-0.31,2.32-0.96,3.28c-5.8,8.5-10.1,17.64-11.73,27.88c-1.94,12.21,0.32,23.32,9.14,32.43
			c4.8,4.96,10.81,8.02,17.58,9.46c12.89,2.73,25.32,0.87,37.43-3.9c11.39-4.49,21.5-11.13,30.1-19.7
			c11.53-11.48,20.12-24.82,22.31-41.4c3-22.72-10.2-38.35-30.79-41.27c-15.82-2.25-30.29,2.08-44.03,9.6
			C127.76,114.44,126.53,116.25,124.43,115.16z"/>
		<path class="st2" d="M116.1,322.36c22.01-5.95,44.3-10.52,66.86-13.85c15.1-2.23,30.26-3.76,45.47-4.87
			c5.86-0.43,11.75-0.54,17.62-0.97c1.85-0.13,2.41,0.84,3.05,2.21c10.42,22.21,27.11,37.66,50.58,44.87
			c28.27,8.69,54.17,3.25,77.26-15.2c6.19-4.94,11.46-10.79,15.77-17.45c1.09-1.69,2.15-2.16,4.19-1.73
			c28.97,6.04,57.14,14.74,84.82,25.11c4.27,1.6,8.46,3.41,12.79,4.79c2.27,0.72,2.4,1.9,1.94,3.8c-2.35,9.59-5.04,19.08-8.52,28.33
			c-4.82,12.81-10.41,25.27-17.59,36.96c-0.69,1.12-1.53,2.15-2.31,3.22c-2.43,3.61-6.09,5.97-9.24,8.81
			c-8.96,8.1-18.54,15.43-28.76,21.91c-18.19,11.56-37.74,20-58.52,25.64c-12.61,3.42-25.44,5.62-38.44,6.51
			c-35.03,2.4-68.69-3.32-100.86-17.59c-15.11-6.7-29.25-15.05-42.3-25.13c-13.19-10.19-25.09-21.74-35.52-34.84
			c-18.32-23.01-31.32-48.64-38.96-77.02C115.1,324.61,114.52,323.29,116.1,322.36z"/>
		<path class="st3" d="M116.1,322.36c-0.67,0.87-0.38,1.76-0.13,2.7c5.14,19.62,12.97,38.12,23.55,55.38
			c12.9,21.06,29,39.35,48.43,54.72c26.19,20.72,55.67,34.26,88.3,40.98c10.6,2.18,21.36,3.33,32.2,3.82
			c27.69,1.26,54.52-2.91,80.55-12.3c15.87-5.73,30.79-13.36,44.84-22.75c11.09-7.41,21.09-16.12,31.06-24.9
			c0.99-0.87,2.08-1.63,3.13-2.44c-1.89,4.9-5.22,8.94-8.14,13.2c-9.26,13.52-20.21,25.61-32.15,36.76
			c-13.55,12.65-28.48,23.47-44.68,32.55c-18.82,10.55-38.71,18.27-59.68,23.25c-12.44,2.95-25.02,4.86-37.8,5.75
			c-5.49,0.38-10.99,0.5-16.46,0.64c-7.55,0.2-15.16-0.38-22.7-1.11c-20.89-2.01-41.17-6.82-60.77-14.34
			c-25.16-9.66-48.02-23.18-68.44-40.82c-38.31-33.09-63.43-74.21-75.48-123.37c-0.63-2.56,0.1-3.45,2.38-4.31
			c22.48-8.55,45.24-16.22,68.46-22.5C113.74,322.97,114.92,322.67,116.1,322.36z"/>
		<path class="st4" d="M53.34,288.12c11.23-4.28,22.48-8.48,33.85-12.41c12.87-4.45,25.77-8.78,38.93-12.23
			c16.38-4.3,32.8-8.46,49.52-11.31c12.97-2.21,25.97-4.11,39.08-5.21c8.21-0.69,16.41-1.45,24.65-1.75
			c3.31-0.12,6.62-0.48,9.94-0.41c1.57,0.03,2.1-0.79,2.6-2.06c6.38-16.18,17.06-28.82,31.79-37.96
			c9.54-5.93,19.96-9.53,31.17-10.83c20.98-2.43,39.95,2.7,56.71,15.43c14.89,11.32,24.44,26.29,28.59,44.56
			c0.58,2.54,1.71,3.53,4.13,3.99c24.57,4.67,47.68,13.67,70.43,23.76c8.84,3.92,17.79,7.62,26.74,11.29
			c1.66,0.68,2.49,1.6,2.55,3.3c0.5,14.83,0.08,29.58-3.4,44.1c-0.53,2.21-1.72,1.74-3.12,1.18c-15.08-5.99-30.35-11.46-45.8-16.4
			c-18.96-6.06-38.17-11.15-57.68-15.13c-1.95-0.4-2.57,0.56-3.32,1.77c-6.2,10.11-14.25,18.45-24.25,24.83
			c-10.81,6.9-22.57,10.94-35.43,12.04c-18.41,1.58-35.14-2.91-50.41-13.12c-13.17-8.81-22.48-20.82-28.52-35.38
			c-0.86-2.07-1.95-2.44-3.83-2.32c-9.45,0.59-18.93,0.91-28.36,1.76c-12.43,1.13-24.83,2.48-37.2,4.27
			c-16.97,2.45-33.76,5.75-50.47,9.49c-6.26,1.4-12.31,3.7-18.55,5.19c-7.83,1.87-15.46,4.38-23.18,6.57
			c-1.36,0.39-2.56,1.3-4.06,1.21c-2.87,1.02-5.43-0.21-7.91-1.28c-14.99-6.45-23.66-17.82-26.08-33.95
			C52.26,289.96,52.06,288.83,53.34,288.12z"/>
		<path class="st2" d="M124.43,115.16c1.2,0.23,1.91-0.72,2.77-1.22c12.59-7.27,25.95-11.63,40.67-11.24
			c17.43,0.45,31.28,10.07,35.74,25.04c2.58,8.66,2.08,17.33-0.52,25.85c-6.1,20.05-19.12,34.76-36.42,45.9
			c-13.58,8.74-28.36,13.65-44.75,12.78c-18.69-0.99-32.5-12.57-35.3-29.79c-1.57-9.67,0.34-18.91,4-27.86
			c2.17-5.3,5.02-10.23,8.31-14.92c0.52-0.74,1.45-1.31,1.24-2.43c2.33-2.49,4.67-4.97,7-7.46
			C112.36,124.26,118.5,119.83,124.43,115.16z"/>
		<path class="st5" d="M53.34,288.12c-1.04,2.78,0.07,5.49,0.77,8c4.32,15.48,14.33,25.51,29.79,30.02c0.8,0.23,1.69,0.15,2.54,0.21
			c-7.67,2.59-15.35,5.13-23,7.79c-7.39,2.56-14.83,5.02-22,8.18c-1.74,0.77-2.15-0.02-2.53-1.43c-1.28-4.74-1.87-9.61-2.7-14.44
			c-1.61-9.41-0.98-18.89-1.15-28.35c-0.04-2.11,0.64-3.24,2.72-3.99C43,292.24,47.99,289.73,53.34,288.12z"/>
		<path class="st0" d="M326.47,212.23c31.18-0.38,57.5,25.49,57.17,57.69c-0.31,31.38-25.34,56.95-57.58,56.87
			c-32.13-0.08-57.07-26.15-57.06-57.4C269.02,238.02,294.63,211.75,326.47,212.23z"/>
		<path class="st2" d="M273.87,269.04c0.35-29.03,24.08-52.4,52.84-52.06c29.64,0.35,52.38,24.1,51.97,54.26
			c-0.38,28.23-24.64,51-53.89,50.58C296.79,321.43,273.53,297.31,273.87,269.04z"/>
		<path class="st0" d="M326.4,229.07c22.4,0.12,40.45,18.31,40.26,40.58c-0.18,22.29-18.21,40.19-40.42,40.14
			c-22.46-0.06-40.41-18.28-40.24-40.86C286.18,246.91,304.39,228.95,326.4,229.07z"/>
		<path class="st2" d="M363.49,270.07c-1.01,21.68-18.03,37.42-39.37,36.4c-19.74-0.94-35.96-18.7-34.94-38.25
			c1.08-20.79,18.37-36.92,38.51-35.92C348.02,233.31,364.4,250.59,363.49,270.07z"/>
	</g>
</g>
</svg>
